<?xml version="1.0" encoding="UTF-8"?>
<svg version="1.1" xmlns="http://www.w3.org/2000/svg" width="198" height="193">
<path d="M0 0 C65.34 0 130.68 0 198 0 C198 63.69 198 127.38 198 193 C132.66 193 67.32 193 0 193 C0 129.31 0 65.62 0 0 Z " fill="#010000" transform="translate(0,0)"/>
<path d="M0 0 C8.58 0 17.16 0 26 0 C24.91259057 3.2622283 24.30517919 3.80816153 21.73608398 5.89941406 C15.57449894 11.13299756 9.93660262 16.89899337 4.22265625 22.609375 C3.00344378 23.82536882 1.78415847 25.04128961 0.56480408 26.25714111 C-1.974274 28.79026711 -4.5113133 31.32541493 -7.04711914 33.86181641 C-10.29926755 37.11406714 -13.55828434 40.35934206 -16.81903744 43.60296249 C-19.33167841 46.10450937 -21.83978606 48.61056318 -24.34662056 51.11792755 C-25.5471226 52.31724902 -26.74924773 53.51494808 -27.95301628 54.71099091 C-29.6283159 56.37652724 -31.29720165 58.04823811 -32.96459961 59.72167969 C-33.46272659 60.21418716 -33.96085358 60.70669464 -34.47407532 61.21412659 C-36.72422355 63.48512853 -37.97198546 64.91595637 -39 68 C-38.45255127 68.22510254 -37.90510254 68.45020508 -37.34106445 68.68212891 C-34.30814919 70.38946821 -31.99831024 72.65771209 -29.54296875 75.0859375 C-28.78213737 75.83322617 -28.78213737 75.83322617 -28.00593567 76.59561157 C-26.9401383 77.64694612 -25.87709194 78.70107597 -24.81665039 79.7578125 C-23.18753062 81.37496961 -21.54068281 82.97253725 -19.89257812 84.5703125 C-18.85823172 85.59520162 -17.82498896 86.62120603 -16.79296875 87.6484375 C-16.29725876 88.12461517 -15.80154877 88.60079285 -15.29081726 89.09140015 C-13.93432617 90.46630859 -13.93432617 90.46630859 -12 93 C-12.10330318 96.09978179 -12.83620285 96.8330529 -15.03125 99.0703125 C-15.8459375 99.74835938 -16.660625 100.42640625 -17.5 101.125 C-20.72377665 103.68606563 -20.72377665 103.68606563 -23 107 C-26.18259851 105.59490901 -28.31348466 103.93078658 -30.75878906 101.46826172 C-31.4892041 100.73760498 -32.21961914 100.00694824 -32.97216797 99.25415039 C-33.72900879 98.48707764 -34.48584961 97.72000488 -35.265625 96.9296875 C-35.96929199 96.22400635 -36.67295898 95.5183252 -37.39794922 94.79125977 C-40.02079222 92.15796606 -42.63487606 89.51595966 -45.25 86.875 C-54.03625 78.026875 -54.03625 78.026875 -63 69 C-63.33 90.78 -63.66 112.56 -64 135 C-70.27 135 -76.54 135 -83 135 C-83.38653894 124.73275619 -83.69728156 114.47045931 -83.88080692 104.19754124 C-83.96896587 99.42538001 -84.08813467 94.65851561 -84.2824707 89.8894043 C-85.67629195 54.80033698 -85.67629195 54.80033698 -76.94029236 45.08396912 C-68.11495585 37 -68.11495585 37 -64 37 C-64 45.91 -64 54.82 -64 64 C-59.2010704 59.8009366 -54.53948002 55.68761557 -50.05883789 51.18823242 C-49.52282959 50.65397644 -48.98682129 50.11972046 -48.43457031 49.5692749 C-46.69477214 47.83381565 -44.9585833 46.09479947 -43.22265625 44.35546875 C-42.00351797 43.1370052 -40.78423137 41.91869004 -39.56480408 40.70051575 C-37.02587012 38.16304743 -34.48873224 35.62380077 -31.95288086 33.08325195 C-28.69902976 29.82366756 -25.44066008 26.56864264 -22.18096256 23.31490612 C-19.6699427 20.80749147 -17.16129902 18.29771042 -14.65337944 15.78719521 C-13.45199451 14.58514279 -12.24986517 13.3838339 -11.04698372 12.18327904 C-9.37402882 10.51285391 -7.70429601 8.83927427 -6.03540039 7.16479492 C-5.53727341 6.66869217 -5.03914642 6.17258942 -4.52592468 5.66145325 C-1.93710531 3.07594381 -1.93710531 3.07594381 0 0 Z " fill="#C9133E" transform="translate(138,29)"/>
<path d="M0 0 C1.71131708 1.62078666 3.37013284 3.29732898 5 5 C5.87398438 5.86238281 6.74796875 6.72476563 7.6484375 7.61328125 C8.54820312 8.50402344 9.44796875 9.39476563 10.375 10.3125 C11.71691406 11.63701172 11.71691406 11.63701172 13.0859375 12.98828125 C15.26361675 15.18956982 17.30350441 17.47830877 19.32421875 19.82421875 C23.16328436 24.25532417 27.26877548 28.38085775 31.4375 32.5 C32.16904297 33.22703125 32.90058594 33.9540625 33.65429688 34.703125 C35.43389824 36.47109499 37.21580918 38.23666378 39 40 C37.62175583 43.0957554 36.04096882 45.20686289 33.64645386 47.59405518 C32.9537439 48.28951447 32.26103394 48.98497375 31.54733276 49.70150757 C30.78776276 50.45388702 30.02819275 51.20626648 29.24560547 51.98144531 C28.44552063 52.7818222 27.64543579 53.5821991 26.82110596 54.40682983 C24.17451263 57.05202947 21.52090472 59.69007385 18.8671875 62.328125 C17.03115034 64.16043219 15.19555414 65.99318134 13.36038208 67.82635498 C9.02212581 72.15775434 4.67944496 76.48467104 0.33458912 80.80944896 C-4.61247844 85.73415149 -9.55385917 90.6645433 -14.4947722 95.59541941 C-24.65686928 105.7366189 -34.82608245 115.87065984 -45 126 C-45.4790532 125.58721456 -45.9581064 125.17442911 -46.45167637 124.74913502 C-47.08093997 124.20807967 -47.71020357 123.66702433 -48.35853577 123.10957336 C-48.98196397 122.57303792 -49.60539217 122.03650248 -50.24771214 121.48370838 C-52.17680349 119.85029582 -54.16860979 118.31861776 -56.18359375 116.79296875 C-67.13028656 107.81003408 -67.13028656 107.81003408 -68.72705078 100.81494141 C-69.38520869 93.50844987 -68.90406204 86.26726795 -68 79 C-64.53370165 80.48653506 -62.30977964 82.45722351 -59.671875 85.1328125 C-58.87265625 85.93847656 -58.0734375 86.74414062 -57.25 87.57421875 C-56.425 88.41597656 -55.6 89.25773437 -54.75 90.125 C-53.90953125 90.97449219 -53.0690625 91.82398438 -52.203125 92.69921875 C-50.13084317 94.79504923 -48.06337607 96.89540713 -46 99 C-39.34120435 93.50720096 -33.25004189 87.46854912 -27.125 81.3984375 C-26.28876602 80.57018904 -26.28876602 80.57018904 -25.43563843 79.72520828 C-22.4963937 76.81250467 -19.56070403 73.89626613 -16.62744141 70.97753906 C-14.2016871 68.56521431 -11.76883213 66.16040299 -9.32958984 63.76171875 C-6.37327593 60.85453445 -3.42925029 57.93544059 -0.49383545 55.00716019 C0.62474463 53.89530805 1.74758715 52.78772735 2.87469482 51.68452072 C4.44268159 50.14795968 5.99435919 48.59658114 7.54296875 47.04052734 C8.43008545 46.1614975 9.31720215 45.28246765 10.23120117 44.37680054 C12.23169424 42.20545098 12.23169424 42.20545098 11.92434692 39.84707642 C10.42673424 36.85447159 8.02341367 34.7628081 5.6171875 32.5 C4.52188998 31.43775301 3.42684543 30.37524514 2.33203125 29.3125 C0.60013045 27.64908688 -1.13558049 25.9899475 -2.87646484 24.3359375 C-4.55597848 22.73468417 -6.21993834 21.11850019 -7.8828125 19.5 C-8.40980743 19.00822266 -8.93680237 18.51644531 -9.47976685 18.00976562 C-10.92626953 16.59375 -10.92626953 16.59375 -13 14 C-12.91907448 9.76915713 -9.95970469 7.59316788 -7.0625 4.75 C-5.71865234 3.41195312 -5.71865234 3.41195312 -4.34765625 2.046875 C-2 0 -2 0 0 0 Z " fill="#CB133E" transform="translate(144,55)"/>
<path d="M0 0 C0 3.69658948 -0.66572476 4.19886972 -3 7 C-3.67289063 7.81017578 -3.67289063 7.81017578 -4.359375 8.63671875 C-6.7791849 11.51180216 -9.15682541 14.14347856 -11.9375 16.6875 C-14.2097486 18.70768318 -14.2097486 18.70768318 -13.96533203 20.80078125 C-12.54830933 24.02904136 -10.14288252 26.12484374 -7.6171875 28.5 C-6.52188998 29.56224699 -5.42684543 30.62475486 -4.33203125 31.6875 C-2.60013045 33.35091312 -0.86441951 35.0100525 0.87646484 36.6640625 C2.55597848 38.26531583 4.21993834 39.88149981 5.8828125 41.5 C6.40980743 41.99177734 6.93680237 42.48355469 7.47976685 42.99023438 C8.92626953 44.40625 8.92626953 44.40625 11 47 C10.91326574 51.32043877 7.5425088 53.85691621 4.65405273 56.68652344 C3.81990341 57.52132988 3.81990341 57.52132988 2.96890259 58.3730011 C1.13082172 60.20899358 -0.71765332 62.03413439 -2.56640625 63.859375 C-3.84358386 65.13095686 -5.12010031 66.40320311 -6.39598083 67.67608643 C-9.75463882 71.02329412 -13.12220864 74.36139483 -16.49169922 77.69769287 C-19.92891931 81.10421627 -23.35765477 84.51925585 -26.78710938 87.93359375 C-33.51645209 94.63076904 -40.25523812 101.31835621 -47 108 C-54.34472973 101.78971739 -54.34472973 101.78971739 -57.67578125 98.38671875 C-58.27583984 97.77892578 -58.87589844 97.17113281 -59.49414062 96.54492188 C-60.09419922 95.93197266 -60.69425781 95.31902344 -61.3125 94.6875 C-62.53542986 93.43911894 -63.76058417 92.19291188 -64.98828125 90.94921875 C-65.51977783 90.40612061 -66.05127441 89.86302246 -66.59887695 89.3034668 C-67.98758593 87.88879476 -67.98758593 87.88879476 -70 87 C-69.99476318 87.73114014 -69.98952637 88.46228027 -69.98413086 89.21557617 C-69.96329839 92.53954198 -69.95031986 95.86349403 -69.9375 99.1875 C-69.92912109 100.33798828 -69.92074219 101.48847656 -69.91210938 102.67382812 C-69.90888672 103.78564453 -69.90566406 104.89746094 -69.90234375 106.04296875 C-69.89710693 107.06414795 -69.89187012 108.08532715 -69.88647461 109.13745117 C-69.99480533 111.86901616 -70.38293132 114.34169374 -71 117 C-71.33 117 -71.66 117 -72 117 C-72 94.89 -72 72.78 -72 50 C-64.1268951 56.74837563 -64.1268951 56.74837563 -61.29956055 59.6027832 C-60.3490406 60.55825798 -60.3490406 60.55825798 -59.37931824 61.53303528 C-58.72176041 62.19889145 -58.06420258 62.86474762 -57.38671875 63.55078125 C-56.69109329 64.25019333 -55.99546783 64.94960541 -55.27876282 65.67021179 C-53.07921365 67.88187926 -50.88296357 70.09677729 -48.6875 72.3125 C-45.77758953 75.24894173 -42.8644241 78.18209716 -39.94921875 81.11328125 C-39.28153976 81.78925858 -38.61386078 82.4652359 -37.9259491 83.16169739 C-37.30802994 83.78291977 -36.69011078 84.40414215 -36.0534668 85.04418945 C-35.51054489 85.59234818 -34.96762299 86.1405069 -34.4082489 86.70527649 C-33.01082021 88.10964799 -33.01082021 88.10964799 -31 89 C-30.75507812 88.41734375 -30.51015625 87.8346875 -30.2578125 87.234375 C-28.79564126 84.63697764 -27.15259586 83.16024169 -24.875 81.25 C-24.15054688 80.63640625 -23.42609375 80.0228125 -22.6796875 79.390625 C-21.84824219 78.70226562 -21.84824219 78.70226562 -21 78 C-21.4706024 73.7420795 -24.13881889 71.45973355 -27.05859375 68.61328125 C-27.81511986 67.8595649 -27.81511986 67.8595649 -28.58692932 67.09062195 C-29.65187017 66.03239056 -30.72039644 64.97775672 -31.79223633 63.92651367 C-33.435094 62.3148603 -35.06699415 60.69273386 -36.69726562 59.06835938 C-37.73375387 58.04103961 -38.77084304 57.01432571 -39.80859375 55.98828125 C-40.29823105 55.50289383 -40.78786835 55.01750641 -41.29234314 54.51741028 C-43.90788712 51.9391898 -43.90788712 51.9391898 -47 50 C-46.45970495 45.97070292 -44.49558844 44.13186429 -41.66381836 41.32324219 C-40.28249977 39.94226349 -40.28249977 39.94226349 -38.87327576 38.53338623 C-37.86229096 37.53772081 -36.8511431 36.54222093 -35.83984375 35.546875 C-34.80928859 34.52191674 -33.77939506 33.49629286 -32.75013733 32.47003174 C-30.04249408 29.77382983 -27.32596228 27.08675928 -24.60748291 24.40148926 C-21.83381027 21.65853271 -19.06863571 18.90703876 -16.30273438 16.15625 C-10.87677256 10.7624398 -5.44139257 5.37824766 0 0 Z " fill="#030001" transform="translate(146,47)"/>
<path d="M0 0 C1.11211124 0.94820361 2.22350264 1.89725153 3.33459473 2.84664917 C3.95357887 3.37505842 4.57256302 3.90346767 5.21030426 4.44788933 C9.48260207 8.15303254 13.47131199 12.15980134 17.5 16.125 C18.43070312 17.01832031 19.36140625 17.91164063 20.3203125 18.83203125 C21.19429688 19.69441406 22.06828125 20.55679687 22.96875 21.4453125 C23.76732422 22.22406738 24.56589844 23.00282227 25.38867188 23.80517578 C27 26 27 26 26.84179688 28.17529297 C25.85993415 30.30361142 24.82758821 31.53792943 23 33 C22.34 33 21.68 33 21 33 C21 33.66 21 34.32 21 35 C18.625 37.625 18.625 37.625 16 40 C15.34 40 14.68 40 14 40 C12.44921875 38.42578125 12.44921875 38.42578125 10.6875 36.3125 C10.06617187 35.58804688 9.44484375 34.86359375 8.8046875 34.1171875 C7.72616172 32.85190401 6.64793187 31.58636805 5.5703125 30.3203125 C4.21297539 28.76562645 4.21297539 28.76562645 2 27 C-2.27057757 27.12964798 -4.77130504 30.34229444 -7.59472656 33.19067383 C-8.41490265 34.00055504 -8.41490265 34.00055504 -9.25164795 34.82679749 C-11.05572934 36.61258614 -12.8485138 38.40923583 -14.640625 40.20703125 C-15.89007518 41.45192151 -17.13989727 42.6964386 -18.39007568 43.94059753 C-21.0076294 46.54921577 -23.61942227 49.16344205 -26.22753906 51.78149414 C-29.57397743 55.13943475 -32.93602493 58.48124052 -36.30276871 61.81880665 C-38.88681814 64.38453257 -41.46151929 66.95947983 -44.03356171 69.53723717 C-45.26968263 70.77351171 -46.50892344 72.00667475 -47.75128937 73.23667336 C-49.48488306 74.95542855 -51.20528891 76.68638764 -52.92285156 78.42114258 C-53.69888733 79.18267639 -53.69888733 79.18267639 -54.49060059 79.95959473 C-57.42108794 82.95200316 -58 83.60592657 -58 88 C-57.43796875 88.103125 -56.8759375 88.20625 -56.296875 88.3125 C-51.86525291 89.63897192 -48.40127887 92.04791922 -45.81884766 95.94873047 C-42.62868732 103.94030088 -44.44157546 114.585449 -45 123 C-48.13738154 121.60919475 -50.25475281 119.98977796 -52.66699219 117.56005859 C-53.36741638 116.85948334 -54.06784058 116.15890808 -54.78948975 115.43710327 C-55.90689545 114.30421371 -55.90689545 114.30421371 -57.046875 113.1484375 C-57.81807678 112.37440582 -58.58927856 111.60037415 -59.3838501 110.80288696 C-61.84396856 108.33158077 -64.29703848 105.85340817 -66.75 103.375 C-68.41750894 101.69745948 -70.08547232 100.02037055 -71.75390625 98.34375 C-75.8412237 94.23439081 -79.92277696 90.11937353 -84 86 C-82.62175583 82.9042446 -81.04096882 80.79313711 -78.64645386 78.40594482 C-77.9537439 77.71048553 -77.26103394 77.01502625 -76.54733276 76.29849243 C-75.78776276 75.54611298 -75.02819275 74.79373352 -74.24560547 74.01855469 C-73.44552063 73.2181778 -72.64543579 72.4178009 -71.82110596 71.59317017 C-69.17451263 68.94797053 -66.52090472 66.30992615 -63.8671875 63.671875 C-62.03115034 61.83956781 -60.19555414 60.00681866 -58.36038208 58.17364502 C-54.02212581 53.84224566 -49.67944496 49.51532896 -45.33458912 45.19055104 C-40.38752156 40.26584851 -35.44614083 35.3354567 -30.5052278 30.40458059 C-20.34313072 20.2633811 -10.17391755 10.12934016 0 0 Z " fill="#CE133F" transform="translate(98,11)"/>
<path d="M0 0 C0.99990525 20.36401058 0.99645407 40.60603802 0.60510254 60.98126221 C0.53268651 64.83767492 0.46892978 68.69423164 0.40429688 72.55078125 C0.27768064 80.03401846 0.14119432 87.51702106 0 95 C-5.61 95 -11.22 95 -17 95 C-17.36368683 84.97623141 -17.65620673 74.95694381 -17.82899475 64.92803192 C-17.91199226 60.26932399 -18.02420703 55.6154166 -18.20703125 50.95947266 C-19.51916927 16.68560482 -19.51916927 16.68560482 -11.25366211 7.51428223 C-2.97481276 0 -2.97481276 0 0 0 Z " fill="#D51440" transform="translate(73,68)"/>
<path d="M0 0 C1.70036316 0.94670105 1.70036316 0.94670105 2.70036316 2.94670105 C1.98920349 3.00591736 1.27804382 3.06513367 0.54533386 3.12614441 C-3.17601636 4.19946957 -5.21226925 6.35594738 -7.81916809 9.0756073 C-8.32260239 9.58470139 -8.82603668 10.09379547 -9.34472656 10.61831665 C-10.94353149 12.23943316 -12.5278329 13.87392239 -14.11213684 15.50920105 C-15.19649397 16.61362988 -16.28177092 17.71715642 -17.36799622 18.81974792 C-20.02264596 21.51839553 -22.6643781 24.22912016 -25.29963684 26.94670105 C-24.96963684 27.27670105 -24.63963684 27.60670105 -24.29963684 27.94670105 C-24.14121034 30.01754825 -24.04839262 32.09348134 -23.98323059 34.1693573 C-23.94133606 35.42941589 -23.89944153 36.68947449 -23.85627747 37.98771667 C-23.81646088 39.32820841 -23.7767487 40.66870325 -23.73713684 42.00920105 C-23.69395642 43.35361628 -23.65034229 44.69801765 -23.60627747 46.04240417 C-23.49978326 49.34372445 -23.39777224 52.64512341 -23.29963684 55.94670105 C-23.95963684 55.94670105 -24.61963684 55.94670105 -25.29963684 55.94670105 C-25.29963684 47.03670105 -25.29963684 38.12670105 -25.29963684 28.94670105 C-29.25963684 32.41170105 -29.25963684 32.41170105 -33.29963684 35.94670105 C-34.74836685 37.0425502 -34.74836685 37.0425502 -36.22636414 38.16053772 C-40.34746563 41.55036806 -43.31870903 44.59300236 -44.20106506 49.95750427 C-44.67529288 54.8508797 -44.58278873 59.73261645 -44.49494934 64.64201355 C-44.49874212 66.44377553 -44.50694144 68.24553311 -44.51933289 70.04725647 C-44.54003451 74.75967659 -44.50138384 79.46975972 -44.44984436 84.18186951 C-44.40779966 89.00194264 -44.42260455 93.82181653 -44.43244934 98.64201355 C-44.44343038 108.07756643 -44.39163356 117.51162907 -44.29963684 126.94670105 C-44.62963684 126.94670105 -44.95963684 126.94670105 -45.29963684 126.94670105 C-45.29963684 117.37670105 -45.29963684 107.80670105 -45.29963684 97.94670105 C-46.28963684 97.61670105 -47.27963684 97.28670105 -48.29963684 96.94670105 C-47.63963684 96.94670105 -46.97963684 96.94670105 -46.29963684 96.94670105 C-45.12344797 82.04290416 -45.12344797 82.04290416 -49.26448059 68.3177948 C-52.43779287 65.19591384 -55.08075186 63.35299605 -59.29963684 61.94670105 C-60.30883789 60.24633789 -60.30883789 60.24633789 -60.29963684 57.94670105 C-58.65631909 55.79559361 -57.0704783 54.03459686 -55.15242004 52.1525116 C-54.59328415 51.58461411 -54.03414825 51.01671661 -53.45806885 50.43161011 C-51.60126249 48.55274765 -49.72669793 46.69282138 -47.85041809 44.8334198 C-46.55746304 43.53709844 -45.26525113 42.24003548 -43.97375488 40.94226074 C-41.26207705 38.22320309 -38.54153942 35.51341597 -35.81452942 32.80973816 C-32.31455173 29.33824783 -28.83749784 25.84479605 -25.36675739 22.34410381 C-22.70180914 19.66111313 -20.02509747 16.99011512 -17.34464073 14.32262611 C-16.05751769 13.0388455 -14.77411788 11.75132104 -13.49448586 10.46007347 C-11.70606381 8.65899392 -9.90247033 6.87465789 -8.09382629 5.09391785 C-7.56429352 4.55426392 -7.03476074 4.01460999 -6.48918152 3.45860291 C-2.86091934 -0.06630786 -2.86091934 -0.06630786 0 0 Z " fill="#2F040E" transform="translate(99.29963684082031,37.05329895019531)"/>
<path d="M0 0 C2.96005447 1.21340098 4.66510565 3.02211061 6.92041016 5.28564453 C8.25458984 6.62079102 8.25458984 6.62079102 9.61572266 7.98291016 C10.53611328 8.91941406 11.45650391 9.85591797 12.40478516 10.82080078 C13.3495231 11.76343427 14.29482968 12.70549821 15.24072266 13.64697266 C22.15478516 20.6164686 22.15478516 20.6164686 22.15478516 22.88330078 C-1.25056464 24.62198391 -1.25056464 24.62198391 -6.73193359 20.65673828 C-9.1205955 18.18089894 -11.081367 15.83182255 -12.84521484 12.88330078 C-11.31273435 9.29927383 -9.17775474 6.85479944 -6.47021484 4.07080078 C-5.69935547 3.25998047 -4.92849609 2.44916016 -4.13427734 1.61376953 C-1.84521484 -0.11669922 -1.84521484 -0.11669922 0 0 Z " fill="#AB123F" transform="translate(143.84521484375,141.11669921875)"/>
<path d="M0 0 C5.94 0 11.88 0 18 0 C16.86686067 5.66569667 15.92668271 6.40652061 11.6875 10 C8.76237345 12.49944057 6.1629659 14.79450885 3.76953125 17.8125 C3.18558594 18.534375 2.60164063 19.25625 2 20 C1.34 20 0.68 20 0 20 C0 13.4 0 6.8 0 0 Z " fill="#AD1242" transform="translate(55,29)"/>
<path d="M0 0 C0 8.25 0 16.5 0 25 C-3.84281736 23.07859132 -5.80431927 21.4073184 -8.75 18.375 C-9.54921875 17.55773437 -10.3484375 16.74046875 -11.171875 15.8984375 C-11.77515625 15.27195312 -12.3784375 14.64546875 -13 14 C-11.41379873 10.12060491 -8.90079013 7.66638913 -5.9375 4.75 C-5.03902344 3.85796875 -4.14054687 2.9659375 -3.21484375 2.046875 C-1 0 -1 0 0 0 Z " fill="#020000" transform="translate(54,84)"/>
<path d="M0 0 C0 27.06 0 54.12 0 82 C-0.33 82 -0.66 82 -1 82 C-1 72.43 -1 62.86 -1 53 C-1.99 52.67 -2.98 52.34 -4 52 C-3.34 52 -2.68 52 -2 52 C-2 35.83 -2 19.66 -2 3 C-5.63 6.63 -9.26 10.26 -13 14 C-13 14.99 -13 15.98 -13 17 C-13.66 17 -14.32 17 -15 17 C-15.66503906 15.20214844 -15.66503906 15.20214844 -16 13 C-14.96777344 11.35253906 -14.96777344 11.35253906 -13.359375 9.765625 C-12.78316406 9.19199219 -12.20695312 8.61835937 -11.61328125 8.02734375 C-10.99839844 7.44082031 -10.38351563 6.85429688 -9.75 6.25 C-9.15058594 5.64800781 -8.55117188 5.04601562 -7.93359375 4.42578125 C-3.40745465 0 -3.40745465 0 0 0 Z " fill="#0F0105" transform="translate(55,82)"/>
<path d="M0 0 C0.66 0 1.32 0 2 0 C1.49054594 4.24138771 0.32653136 6.16641438 -2.69360352 9.14770508 C-3.47433731 9.92813675 -4.25507111 10.70856842 -5.0594635 11.51264954 C-5.90737961 12.3399205 -6.75529572 13.16719147 -7.62890625 14.01953125 C-8.49313705 14.87810226 -9.35736786 15.73667328 -10.24778748 16.6212616 C-13.01011532 19.36120006 -15.78602604 22.08690446 -18.5625 24.8125 C-20.4377604 26.66769895 -22.31212086 28.52380803 -24.18554688 30.38085938 C-28.77997439 34.93118528 -33.38563154 39.46990177 -38 44 C-37.67 44.99 -37.34 45.98 -37 47 C-37.99 47.495 -37.99 47.495 -39 48 C-42.57980864 50.38653909 -45.17497576 53.25878481 -48.03515625 56.453125 C-48.68355469 56.96359375 -49.33195313 57.4740625 -50 58 C-52.12280273 57.59667969 -52.12280273 57.59667969 -54 57 C-53.32348389 56.33014572 -52.64696777 55.66029144 -51.94995117 54.97013855 C-45.58476256 48.66568566 -39.22744988 42.35338627 -32.87782288 36.03325939 C-29.61292313 32.78403564 -26.34528315 29.53766936 -23.07128906 26.29760742 C-19.91358638 23.17242899 -16.7632044 20.04004284 -13.61782837 16.9024601 C-12.41471823 15.70490593 -11.20896477 14.51000147 -10.00057983 13.31777 C-8.31238503 11.65125698 -6.63371709 9.97568785 -4.95703125 8.29760742 C-4.45209137 7.80345337 -3.94715149 7.30929932 -3.4269104 6.8001709 C-0.49459254 3.96596543 -0.49459254 3.96596543 0 0 Z " fill="#27030B" transform="translate(182,94)"/>
<path d="M0 0 C0 3.69658948 -0.66572476 4.19886972 -3 7 C-3.67289063 7.81017578 -3.67289063 7.81017578 -4.359375 8.63671875 C-7.41759103 12.27032079 -10.64062452 15.64062452 -14 19 C-14.66 19.99 -15.32 20.98 -16 22 C-16.33 21.34 -16.66 20.68 -17 20 C-23.6 26.6 -30.2 33.2 -37 40 C-37.66 39.67 -38.32 39.34 -39 39 C-26.13 26.13 -13.26 13.26 0 0 Z " fill="#380512" transform="translate(146,47)"/>
<path d="M0 0 C6.27 0 12.54 0 19 0 C19 1.65 19 3.3 19 5 C19.66 5.33 20.32 5.66 21 6 C14.73 12.27 8.46 18.54 2 25 C1.34 23.68 0.68 22.36 0 21 C2.62254174 18.32403611 5.2692463 15.72633012 8.078125 13.24609375 C8.59890625 12.78396484 9.1196875 12.32183594 9.65625 11.84570312 C10.72947724 10.89742268 11.80772738 9.95480023 12.890625 9.01757812 C15.96419181 6.27057779 16.967047 5.13181199 18 1 C12.06 1 6.12 1 0 1 C0 0.67 0 0.34 0 0 Z " fill="#280410" transform="translate(55,28)"/>
<path d="M0 0 C5.94 0 11.88 0 18 0 C16.77446495 6.12767526 15.72441958 6.48181521 11 10 C11.25 7.625 11.25 7.625 12 5 C14.0625 3.6875 14.0625 3.6875 16 3 C16 2.34 16 1.68 16 1 C11.05 1 6.1 1 1 1 C1 5.95 1 10.9 1 16 C2.32 16.33 3.64 16.66 5 17 C3.625 18.5 3.625 18.5 2 20 C1.34 20 0.68 20 0 20 C0 13.4 0 6.8 0 0 Z " fill="#8B0F38" transform="translate(55,29)"/>
<path d="M0 0 C1.1055189 0.93590504 2.20935453 1.87379858 3.3125 2.8125 C3.92738281 3.33457031 4.54226562 3.85664062 5.17578125 4.39453125 C6.07876953 5.18923828 6.07876953 5.18923828 7 6 C7.59167969 6.47824219 8.18335937 6.95648438 8.79296875 7.44921875 C10 9 10 9 9.96875 10.9296875 C8.65950374 13.72767347 6.86627611 15.15559931 4.5 17.125 C1.27622335 19.68606563 1.27622335 19.68606563 -1 23 C-2.32 22.34 -3.64 21.68 -5 21 C-4.38125 20.7525 -3.7625 20.505 -3.125 20.25 C-0.88950792 19.19995835 -0.88950792 19.19995835 -0.125 17.1875 C1.55805758 13.91488804 4.11451985 12.25820186 7 10 C6.57847656 9.52949219 6.15695313 9.05898437 5.72265625 8.57421875 C5.17480469 7.95160156 4.62695312 7.32898438 4.0625 6.6875 C3.51722656 6.07261719 2.97195312 5.45773438 2.41015625 4.82421875 C1 3 1 3 0 0 Z " fill="#720E36" transform="translate(116,113)"/>
<path d="M0 0 C0.99 0.66 1.98 1.32 3 2 C3.34057617 4.52197266 3.34057617 4.52197266 3.29296875 7.6640625 C3.28330078 8.78554687 3.27363281 9.90703125 3.26367188 11.0625 C3.23853516 12.238125 3.21339844 13.41375 3.1875 14.625 C3.16719727 16.40003906 3.16719727 16.40003906 3.14648438 18.2109375 C3.11103916 21.14107539 3.06162769 24.07031459 3 27 C0.06769807 25.67879172 -1.98664899 24.25361803 -4.234375 21.9609375 C-4.80800781 21.38085938 -5.38164063 20.80078125 -5.97265625 20.203125 C-6.55917969 19.59984375 -7.14570312 18.9965625 -7.75 18.375 C-8.35199219 17.76398438 -8.95398437 17.15296875 -9.57421875 16.5234375 C-11.05405305 15.02011376 -12.52764676 13.51065144 -14 12 C-11 12 -11 12 -8.3359375 14.40625 C-7.34131299 15.43012817 -6.3545941 16.46173229 -5.375 17.5 C-3.60007032 19.35229841 -1.81136004 21.18273976 0 23 C0.33 23 0.66 23 1 23 C1.02902429 19.72918529 1.04680684 16.4584037 1.0625 13.1875 C1.07087891 12.25873047 1.07925781 11.32996094 1.08789062 10.37304688 C1.09111328 9.48037109 1.09433594 8.58769531 1.09765625 7.66796875 C1.10289307 6.84578857 1.10812988 6.0236084 1.11352539 5.17651367 C1.08741524 2.81827404 1.08741524 2.81827404 0 0 Z " fill="#790D33" transform="translate(50,107)"/>
<path d="M0 0 C3.875 1.75 3.875 1.75 5 4 C4.01 4 3.02 4 2 4 C2.03029297 4.62044189 2.06058594 5.24088379 2.09179688 5.88012695 C2.22861169 8.69088218 2.36431836 11.50168985 2.5 14.3125 C2.54769531 15.28896484 2.59539062 16.26542969 2.64453125 17.27148438 C2.68964844 18.20927734 2.73476562 19.14707031 2.78125 20.11328125 C2.82314453 20.97735596 2.86503906 21.84143066 2.90820312 22.73168945 C2.97922401 24.48662304 3 26.24362992 3 28 C1.51831055 26.86010742 1.51831055 26.86010742 0 25 C-0.34057617 22.36450195 -0.34057617 22.36450195 -0.29296875 19.23828125 C-0.28330078 18.12001953 -0.27363281 17.00175781 -0.26367188 15.84960938 C-0.23853516 14.68236328 -0.21339844 13.51511719 -0.1875 12.3125 C-0.17396484 11.13365234 -0.16042969 9.95480469 -0.14648438 8.74023438 C-0.11109326 5.82636589 -0.06171809 2.91341055 0 0 Z " fill="#8B0E34" transform="translate(76,134)"/>
<path d="M0 0 C1.8359375 0.94921875 1.8359375 0.94921875 3.8359375 3.94921875 C3.27261719 3.69785156 2.70929688 3.44648438 2.12890625 3.1875 C-0.33623981 2.66984782 -0.33623981 2.66984782 -2.48828125 4.6796875 C-3.26816406 5.49050781 -4.04804688 6.30132812 -4.8515625 7.13671875 C-6.03298828 8.33361328 -6.03298828 8.33361328 -7.23828125 9.5546875 C-9.06535401 11.82648386 -9.77871357 13.1080868 -10.1640625 15.94921875 C-11.1540625 14.95921875 -12.1440625 13.96921875 -13.1640625 12.94921875 C-11.63158201 9.3651918 -9.4966024 6.92071741 -6.7890625 4.13671875 C-6.01820313 3.32589844 -5.24734375 2.51507813 -4.453125 1.6796875 C-2.1640625 -0.05078125 -2.1640625 -0.05078125 0 0 Z " fill="#7C0F3B" transform="translate(144.1640625,141.05078125)"/>
<path d="M0 0 C0.66 1.32 1.32 2.64 2 4 C-1.67832017 8.52615993 -5.41086363 12.39424999 -10 16 C-10.66 15.34 -11.32 14.68 -12 14 C-10.71937515 12.2925002 -9.38232443 10.62626404 -8 9 C-7.34 9 -6.68 9 -6 9 C-6 8.34 -6 7.68 -6 7 C-5.195625 6.360625 -4.39125 5.72125 -3.5625 5.0625 C-0.76279268 3.18964068 -0.76279268 3.18964068 0 0 Z " fill="#2C040E" transform="translate(125,37)"/>
<path d="M0 0 C0.99 0.33 1.98 0.66 3 1 C2.50628906 1.48210937 2.01257813 1.96421875 1.50390625 2.4609375 C0.86324219 3.09257813 0.22257812 3.72421875 -0.4375 4.375 C-1.07558594 5.00148438 -1.71367188 5.62796875 -2.37109375 6.2734375 C-4.07882176 7.91723061 -4.07882176 7.91723061 -5 10 C-5.66 10 -6.32 10 -7 10 C-6.42424336 6.64749299 -5.40693737 5.06181371 -2.9375 2.75 C-2.38964844 2.22921875 -1.84179688 1.7084375 -1.27734375 1.171875 C-0.64505859 0.59179688 -0.64505859 0.59179688 0 0 Z " fill="#160207" transform="translate(106,87)"/>
<path d="M0 0 C0.66 0.99 1.32 1.98 2 3 C-1.96 6.96 -5.92 10.92 -10 15 C-10.99 14.34 -11.98 13.68 -13 13 C-12.34 13 -11.68 13 -11 13 C-10.75378906 12.41476563 -10.50757812 11.82953125 -10.25390625 11.2265625 C-8.80626232 8.65597983 -7.20757518 7.24544307 -4.9375 5.375 C-2.02124288 3.04514448 -2.02124288 3.04514448 0 0 Z " fill="#140209" transform="translate(126,123)"/>
<path d="M0 0 C0.66 0.66 1.32 1.32 2 2 C1.13375 2.83144531 0.2675 3.66289063 -0.625 4.51953125 C-1.75039057 5.61678706 -2.87536934 6.71446534 -4 7.8125 C-4.57234375 8.35970703 -5.1446875 8.90691406 -5.734375 9.47070312 C-7.21400538 10.92391154 -8.61296658 12.45816374 -10 14 C-10 14.99 -10 15.98 -10 17 C-10.66 17 -11.32 17 -12 17 C-12.67163086 15.20214844 -12.67163086 15.20214844 -13 13 C-11.92016602 11.35253906 -11.92016602 11.35253906 -10.25390625 9.765625 C-9.36928711 8.90517578 -9.36928711 8.90517578 -8.46679688 8.02734375 C-7.83837891 7.44082031 -7.20996094 6.85429688 -6.5625 6.25 C-5.93794922 5.64800781 -5.31339844 5.04601562 -4.66992188 4.42578125 C-3.12421404 2.9390699 -1.5634768 1.4680135 0 0 Z " fill="#410614" transform="translate(52,82)"/>
<path d="M0 0 C0.66 1.32 1.32 2.64 2 4 C1.27425781 4.07089844 0.54851562 4.14179687 -0.19921875 4.21484375 C-3.78284504 5.21945865 -5.27478745 6.87328223 -7.8125 9.5625 C-8.60269531 10.38878906 -9.39289063 11.21507813 -10.20703125 12.06640625 C-11.09455078 13.02353516 -11.09455078 13.02353516 -12 14 C-12.33 13.01 -12.66 12.02 -13 11 C-11.21427748 9.16052663 -9.42197551 7.32842259 -7.625 5.5 C-7.11710938 4.97535156 -6.60921875 4.45070313 -6.0859375 3.91015625 C-2.2265625 0 -2.2265625 0 0 0 Z " fill="#7C0E38" transform="translate(144,55)"/>
<path d="M0 0 C2.64 0 5.28 0 8 0 C6.50902342 3.7952131 4.24299151 5.61042731 1 8 C0 7 0 7 -0.0625 3.4375 C-0.041875 2.303125 -0.02125 1.16875 0 0 Z " fill="#C21340" transform="translate(56,30)"/>
<path d="M0 0 C0 6.23344042 -7.16988164 12.12172063 -11.375 16.4375 C-11.91125 16.953125 -12.4475 17.46875 -13 18 C-13.66 17.67 -14.32 17.34 -15 17 C-14.45730469 16.48050781 -13.91460937 15.96101563 -13.35546875 15.42578125 C-9.64477137 11.80868705 -6.53093884 8.5556899 -4 4 C-2.70420353 2.63015802 -1.38007251 1.2848951 0 0 Z " fill="#20030B" transform="translate(146,47)"/>
<path d="M0 0 C0.66796875 1.796875 0.66796875 1.796875 1 4 C-0.07421875 5.703125 -0.07421875 5.703125 -1.6875 7.25 C-2.20699219 7.77078125 -2.72648437 8.2915625 -3.26171875 8.828125 C-5 10 -5 10 -9 10 C-7.7204498 7.4408996 -5.97555046 5.88070045 -3.9375 3.875 C-3.20402344 3.15054688 -2.47054687 2.42609375 -1.71484375 1.6796875 C-1.14894531 1.12539063 -0.58304688 0.57109375 0 0 Z " fill="#931143" transform="translate(65,35)"/>
<path d="M0 0 C0.66 0.33 1.32 0.66 2 1 C0.62845496 3.95409701 -0.98863724 6.44008376 -3 9 C-4.32 8.34 -5.64 7.68 -7 7 C-6.38125 6.7525 -5.7625 6.505 -5.125 6.25 C-2.62985717 4.78226892 -2.09872287 3.62003145 -1 1 C-0.67 0.67 -0.34 0.34 0 0 Z " fill="#7C0F3E" transform="translate(118,127)"/>
<path d="M0 0 C0.33 0 0.66 0 1 0 C1 5.28 1 10.56 1 16 C2.32 16.33 3.64 16.66 5 17 C3.625 18.5 3.625 18.5 2 20 C1.34 20 0.68 20 0 20 C0 13.4 0 6.8 0 0 Z " fill="#640B2A" transform="translate(55,29)"/>
<path d="M0 0 C0.99 0.33 1.98 0.66 3 1 C2.67 2.32 2.34 3.64 2 5 C1.34 5 0.68 5 0 5 C-0.5625 3.0625 -0.5625 3.0625 -1 1 C-0.67 0.67 -0.34 0.34 0 0 Z " fill="#27030D" transform="translate(40,94)"/>
<path d="M0 0 C1.65 0 3.3 0 5 0 C3.25 3.875 3.25 3.875 1 5 C0.67 3.35 0.34 1.7 0 0 Z " fill="#D1133E" transform="translate(56,30)"/>
</svg>
