<?xml version="1.0" encoding="UTF-8"?>
<svg version="1.1" xmlns="http://www.w3.org/2000/svg" width="123" height="95">
<path d="M0 0 C40.59 0 81.18 0 123 0 C123 31.35 123 62.7 123 95 C82.41 95 41.82 95 0 95 C0 63.65 0 32.3 0 0 Z " fill="#09101A" transform="translate(0,0)"/>
<path d="M0 0 C3.80475512 1.77002947 6.28089246 4.01352925 9.25 7 C10.14203125 7.886875 11.0340625 8.77375 11.953125 9.6875 C14 12 14 12 14 14 C17.96 10.535 17.96 10.535 22 7 C25.84353532 8.92176766 27.79333212 10.5599133 30.765625 13.5703125 C31.65507813 14.46621094 32.54453125 15.36210938 33.4609375 16.28515625 C34.38132813 17.22230469 35.30171875 18.15945312 36.25 19.125 C37.19484856 20.07988637 38.14015633 21.03431859 39.0859375 21.98828125 C41.39518338 24.32109087 43.69963203 26.65844086 46 29 C43.52063117 34.82844198 38.51686013 38.89292125 34.125 43.3125 C33.21363281 44.25673828 32.30226562 45.20097656 31.36328125 46.17382812 C30.48285156 47.06134766 29.60242188 47.94886719 28.6953125 48.86328125 C27.89109863 49.68094971 27.08688477 50.49861816 26.25830078 51.34106445 C24 53 24 53 21.84716797 52.87963867 C19.33249681 51.68212873 17.79213649 50.11216087 16 48 C16 47.34 16 46.68 16 46 C10.7754936 50.46457819 5.80466832 55.08742843 1 60 C-5.74080425 54.47349666 -11.8071129 48.30550441 -17.9375 42.125 C-19.01343727 41.04403726 -20.08960731 39.96330617 -21.16601562 38.8828125 C-23.78003292 36.25787359 -26.39088596 33.62981372 -29 31 C-27.34763349 26.70932454 -24.1094793 23.8570447 -20.8984375 20.703125 C-20.30197418 20.10949158 -19.70551086 19.51585815 -19.0909729 18.90423584 C-17.1903019 17.01473373 -15.28278526 15.13231608 -13.375 13.25 C-12.08287532 11.96790935 -10.79120324 10.68536239 -9.5 9.40234375 C-6.33855521 6.26291568 -3.1709539 3.12982199 0 0 Z " fill="#0A131C" transform="translate(50,20)"/>
<path d="M0 0 C3.80475512 1.77002947 6.28089246 4.01352925 9.25 7 C10.14203125 7.886875 11.0340625 8.77375 11.953125 9.6875 C14 12 14 12 14 14 C17.96 10.535 17.96 10.535 22 7 C25.84353532 8.92176766 27.79333212 10.5599133 30.765625 13.5703125 C31.65507813 14.46621094 32.54453125 15.36210938 33.4609375 16.28515625 C34.38132813 17.22230469 35.30171875 18.15945312 36.25 19.125 C37.19484856 20.07988637 38.14015633 21.03431859 39.0859375 21.98828125 C41.39518338 24.32109087 43.69963203 26.65844086 46 29 C43.52063117 34.82844198 38.51686013 38.89292125 34.125 43.3125 C33.21363281 44.25673828 32.30226562 45.20097656 31.36328125 46.17382812 C30.48285156 47.06134766 29.60242188 47.94886719 28.6953125 48.86328125 C27.89109863 49.68094971 27.08688477 50.49861816 26.25830078 51.34106445 C24 53 24 53 21.84716797 52.87963867 C19.33249681 51.68212873 17.79213649 50.11216087 16 48 C16 47.34 16 46.68 16 46 C10.7754936 50.46457819 5.80466832 55.08742843 1 60 C-5.74080425 54.47349666 -11.8071129 48.30550441 -17.9375 42.125 C-19.01343727 41.04403726 -20.08960731 39.96330617 -21.16601562 38.8828125 C-23.78003292 36.25787359 -26.39088596 33.62981372 -29 31 C-27.34763349 26.70932454 -24.1094793 23.8570447 -20.8984375 20.703125 C-20.30197418 20.10949158 -19.70551086 19.51585815 -19.0909729 18.90423584 C-17.1903019 17.01473373 -15.28278526 15.13231608 -13.375 13.25 C-12.08287532 11.96790935 -10.79120324 10.68536239 -9.5 9.40234375 C-6.33855521 6.26291568 -3.1709539 3.12982199 0 0 Z M-3.64331055 5.50463867 C-4.13226807 5.99810791 -4.62122559 6.49157715 -5.125 7 C-5.62491455 7.50184814 -6.1248291 8.00369629 -6.63989258 8.52075195 C-10.00342564 11.92337692 -13.19146374 15.43365167 -16.296875 19.07421875 C-19.36536827 22.54386825 -22.68759155 25.76502448 -26 29 C-24.39626852 33.00517396 -21.57886014 35.6771098 -18.5546875 38.640625 C-18.02481232 39.16767029 -17.49493713 39.69471558 -16.94900513 40.23773193 C-15.26232175 41.91325675 -13.56880436 43.58167722 -11.875 45.25 C-10.72740612 46.38755851 -9.58026539 47.52557436 -8.43359375 48.6640625 C-5.62761863 51.44803465 -2.81549536 54.2256576 0 57 C3.36896613 55.53880723 5.57147399 53.67411531 8.15234375 51.078125 C8.92900391 50.29953125 9.70566406 49.5209375 10.50585938 48.71875 C11.30830078 47.9040625 12.11074219 47.089375 12.9375 46.25 C13.73607422 45.45078125 14.53464844 44.6515625 15.35742188 43.828125 C19.45328261 39.70172346 23.37197885 35.5441881 27 31 C25.42219077 27.28954753 23.09296752 24.70093616 20.375 21.75 C19.55773437 20.85796875 18.74046875 19.9659375 17.8984375 19.046875 C17.27195313 18.37140625 16.64546875 17.6959375 16 17 C11.92623969 18.61010527 9.23492931 21.53822271 6.25 24.625 C5.74339844 25.140625 5.23679687 25.65625 4.71484375 26.1875 C3.47196098 27.45383339 2.23534724 28.7263144 1 30 C3.99739015 26.40738344 6.9834251 22.97536484 10.4375 19.8125 C13.20252532 17.41035251 13.20252532 17.41035251 13.00390625 15.18359375 C11.50616397 11.92585861 9.04950785 9.69675691 6.5 7.25 C5.98824219 6.74339844 5.47648437 6.23679687 4.94921875 5.71484375 C0.63497316 1.37005835 0.63497316 1.37005835 -3.64331055 5.50463867 Z " fill="#4BCA93" transform="translate(50,20)"/>
<path d="M0 0 C1.3046875 1.36328125 1.3046875 1.36328125 2.875 3.3125 C7.7474733 9.07463934 13.38364603 13.98309268 19 19 C18.45634458 22.98416091 16.56534815 24.78363228 13.74609375 27.546875 C12.89208984 28.39121094 12.03808594 29.23554687 11.15820312 30.10546875 C10.26037109 30.97816406 9.36253906 31.85085937 8.4375 32.75 C7.53580078 33.63816406 6.63410156 34.52632812 5.70507812 35.44140625 C3.47662902 37.63448315 1.24148407 39.82026044 -1 42 C-3.31 40.02 -5.62 38.04 -8 36 C-3.88380164 31.08064098 0.40410362 26.47352044 5 22 C3.38462556 18.10082032 0.72075127 15.28706228 -2.125 12.25 C-2.82689453 11.49009766 -2.82689453 11.49009766 -3.54296875 10.71484375 C-4.69126541 9.47280859 -5.84508672 8.23588506 -7 7 C-3.6446281 0 -3.6446281 0 0 0 Z " fill="#0B151D" transform="translate(74,29)"/>
<path d="M0 0 C3.97174513 1.98587256 6.15007608 3.88194787 9.25 7 C10.58804687 8.3303125 10.58804687 8.3303125 11.953125 9.6875 C14 12 14 12 14 14 C16.64 12.02 19.28 10.04 22 8 C18.99261214 14.01477573 15.15069804 17.84544069 10.10546875 22.15234375 C6.91726976 24.95015102 3.95620854 27.96064809 1 31 C1 28 1 28 3.44140625 25.44140625 C5.0035176 23.97981686 6.58448644 22.54279993 8.17773438 21.11523438 C11.08219171 18.5407573 11.08219171 18.5407573 12.15625 14.98046875 C10.48076653 12.11063727 8.32838621 10.05009307 5.9375 7.75 C5.01839844 6.85796875 4.09929688 5.9659375 3.15234375 5.046875 C2.44207031 4.37140625 1.73179688 3.6959375 1 3 C-6.07651331 8.62904468 -11.95490616 15.3096991 -18 22 C-18.99 21.67 -19.98 21.34 -21 21 C-14.07 14.07 -7.14 7.14 0 0 Z M22 7 C24 8 24 8 24 8 Z " fill="#52DEA0" transform="translate(50,20)"/>
<path d="M0 0 C5.23435005 4.27293882 9.67106815 8.81580806 14 14 C12.63016497 17.16115776 12.0109362 17.9927092 9 20 C9 17.66666667 9 15.33333333 9 13 C7.55545155 11.10894709 7.55545155 11.10894709 5.625 9.4375 C3.33051661 7.3176995 1.75710172 5.63565258 0 3 C0 2.01 0 1.02 0 0 Z " fill="#46BE8B" transform="translate(66,35)"/>
<path d="M0 0 C3.8288537 1.57973684 6.28773759 4.02060457 9.1875 6.9375 C10.50814453 8.25041016 10.50814453 8.25041016 11.85546875 9.58984375 C14 12 14 12 15 15 C14.01 15.495 14.01 15.495 13 16 C12.56429687 15.49210937 12.12859375 14.98421875 11.6796875 14.4609375 C8.74023652 11.06339026 5.79798935 7.74466037 2.5625 4.625 C0 2 0 2 0 0 Z " fill="#48C28D" transform="translate(50,20)"/>
<path d="M0 0 C3.16854747 0.57691478 4.78226459 1.41646887 7.015625 3.72265625 C7.54414062 4.26083984 8.07265625 4.79902344 8.6171875 5.35351562 C9.15601562 5.91748047 9.69484375 6.48144531 10.25 7.0625 C10.80429688 7.63033203 11.35859375 8.19816406 11.9296875 8.78320312 C13.29334214 10.18212469 14.64760417 11.59019114 16 13 C15.34 13.66 14.68 14.32 14 15 C11.99387601 13.04761147 9.99507567 11.08862178 8 9.125 C7.42765625 8.56941406 6.8553125 8.01382813 6.265625 7.44140625 C4.80549218 5.99865596 3.39850702 4.5025626 2 3 C2 2.34 2 1.68 2 1 C1.34 0.67 0.68 0.34 0 0 Z " fill="#45BB89" transform="translate(72,28)"/>
<path d="M0 0 C1.14926266 0.95421808 2.29430541 1.91352045 3.4375 2.875 C4.07558594 3.40867188 4.71367188 3.94234375 5.37109375 4.4921875 C7 6 7 6 8 8 C7.01 8.33 6.02 8.66 5 9 C0 3.375 0 3.375 0 0 Z " fill="#40AC7F" transform="translate(66,35)"/>
<path d="M0 0 C0.99 0 1.98 0 3 0 C3 1.65 3 3.3 3 5 C1.68 4.67 0.36 4.34 -1 4 C-0.67 2.68 -0.34 1.36 0 0 Z " fill="#46BD8A" transform="translate(46,51)"/>
</svg>
