<svg width="400" height="400" viewBox="0 0 400 400" fill="none" xmlns="http://www.w3.org/2000/svg">
<rect width="400" height="400" fill="#1E1E1E"/>
<g clip-path="url(#clip0_0_1)">
<rect width="400" height="400" fill="#55E6A5"/>
<rect x="35.7279" y="199.777" width="232" height="232" transform="rotate(-45 35.7279 199.777)" stroke="black" stroke-width="18"/>
<mask id="path-2-outside-1_0_1" maskUnits="userSpaceOnUse" x="113" y="69" width="197" height="261" fill="black">
<rect fill="white" x="113" y="69" width="197" height="261"/>
<path d="M115.824 327V72.4545H146.648V198.733H149.631L263.977 72.4545H304.247L197.358 187.298L304.247 327H266.96L178.466 208.676L146.648 244.472V327H115.824Z"/>
</mask>
<path d="M115.824 327V72.4545H146.648V198.733H149.631L263.977 72.4545H304.247L197.358 187.298L304.247 327H266.96L178.466 208.676L146.648 244.472V327H115.824Z" fill="black"/>
<path d="M115.824 327H113.324V329.5H115.824V327ZM115.824 72.4545V69.9545H113.324V72.4545H115.824ZM146.648 72.4545H149.148V69.9545H146.648V72.4545ZM146.648 198.733H144.148V201.233H146.648V198.733ZM149.631 198.733V201.233H150.74L151.484 200.411L149.631 198.733ZM263.977 72.4545V69.9545H262.868L262.124 70.7765L263.977 72.4545ZM304.247 72.4545L306.077 74.1578L309.989 69.9545H304.247V72.4545ZM197.358 187.298L195.528 185.595L194.089 187.141L195.372 188.817L197.358 187.298ZM304.247 327V329.5H309.308L306.233 325.481L304.247 327ZM266.96 327L264.958 328.497L265.708 329.5H266.96V327ZM178.466 208.676L180.468 207.179L178.633 204.725L176.597 207.015L178.466 208.676ZM146.648 244.472L144.779 242.811L144.148 243.521V244.472H146.648ZM146.648 327V329.5H149.148V327H146.648ZM118.324 327V72.4545H113.324V327H118.324ZM115.824 74.9545H146.648V69.9545H115.824V74.9545ZM144.148 72.4545V198.733H149.148V72.4545H144.148ZM146.648 201.233H149.631V196.233H146.648V201.233ZM151.484 200.411L265.83 74.1326L262.124 70.7765L147.778 197.055L151.484 200.411ZM263.977 74.9545H304.247V69.9545H263.977V74.9545ZM302.417 70.7513L195.528 185.595L199.188 189.002L306.077 74.1578L302.417 70.7513ZM195.372 188.817L302.262 328.519L306.233 325.481L199.343 185.779L195.372 188.817ZM304.247 324.5H266.96V329.5H304.247V324.5ZM268.962 325.503L180.468 207.179L176.464 210.173L264.958 328.497L268.962 325.503ZM176.597 207.015L144.779 242.811L148.516 246.133L180.334 210.337L176.597 207.015ZM144.148 244.472V327H149.148V244.472H144.148ZM146.648 324.5H115.824V329.5H146.648V324.5Z" fill="#55E6A5" mask="url(#path-2-outside-1_0_1)"/>
<mask id="path-4-inside-2_0_1" fill="white">
<path d="M23 199.777L199.777 23L376.553 199.777L199.777 376.553L23 199.777Z"/>
</mask>
<path d="M35.7279 212.505L212.505 35.7279L187.049 10.2721L10.2721 187.049L35.7279 212.505ZM363.825 187.049L187.049 363.825L212.505 389.281L389.281 212.505L363.825 187.049Z" fill="black" mask="url(#path-4-inside-2_0_1)"/>
<rect x="289.459" y="287" width="2.5" height="51" transform="rotate(45.6338 289.459 287)" fill="#55E6A5"/>
<rect x="273.459" y="274" width="2.5" height="51" transform="rotate(45.6338 273.459 274)" fill="#55E6A5"/>
<rect x="149.459" y="99" width="2.5" height="51" transform="rotate(45.6338 149.459 99)" fill="#55E6A5"/>
<rect x="147.459" y="72" width="2.5" height="57.406" transform="rotate(45.6338 147.459 72)" fill="#55E6A5"/>
</g>
<defs>
<clipPath id="clip0_0_1">
<rect width="400" height="400" fill="white"/>
</clipPath>
</defs>
</svg>
